<svg xmlns="http://www.w3.org/2000/svg" width="272.58000000000004" height="35" viewBox="0 0 272.58000000000004 35"><rect class="svg__rect" x="0" y="0" width="214.24" height="35" fill="#FFB7C5"/><rect class="svg__rect" x="212.24" y="0" width="60.34" height="35" fill="#725C42"/><path class="svg__text" d="M16.25 14.66L13.61 14.66L13.61 13.47L20.38 13.47L20.38 14.66L17.72 14.66L17.72 22L16.25 22L16.25 14.66ZM23.87 18.00L23.87 18.00L23.87 17.52Q23.87 16.28 24.31 15.32Q24.75 14.37 25.56 13.86Q26.36 13.35 27.41 13.35Q28.45 13.35 29.26 13.85Q30.06 14.35 30.50 15.29Q30.94 16.23 30.95 17.48L30.95 17.48L30.95 17.96Q30.95 19.21 30.51 20.16Q30.08 21.10 29.27 21.61Q28.47 22.12 27.42 22.12L27.42 22.12Q26.38 22.12 25.57 21.61Q24.76 21.10 24.32 20.17Q23.87 19.23 23.87 18.00ZM25.35 17.46L25.35 17.96Q25.35 19.36 25.90 20.13Q26.45 20.90 27.42 20.90L27.42 20.90Q28.40 20.90 28.93 20.15Q29.46 19.40 29.46 17.96L29.46 17.96L29.46 17.51Q29.46 16.09 28.93 15.34Q28.39 14.58 27.41 14.58L27.41 14.58Q26.45 14.58 25.90 15.33Q25.36 16.09 25.35 17.46L25.35 17.46ZM43.07 14.66L40.43 14.66L40.43 13.47L47.20 13.47L47.20 14.66L44.54 14.66L44.54 22L43.07 22L43.07 14.66ZM52.44 22L50.96 22L50.96 13.47L52.44 13.47L52.44 17.02L56.25 17.02L56.25 13.47L57.73 13.47L57.73 22L56.25 22L56.25 18.21L52.44 18.21L52.44 22ZM68.05 22L62.47 22L62.47 13.47L68.01 13.47L68.01 14.66L63.95 14.66L63.95 17.02L67.46 17.02L67.46 18.19L63.95 18.19L63.95 20.82L68.05 20.82L68.05 22ZM80.52 22L77.46 13.47L79.08 13.47L81.22 20.14L83.39 13.47L85.02 13.47L81.95 22L80.52 22ZM94.55 22L88.97 22L88.97 13.47L94.51 13.47L94.51 14.66L90.45 14.66L90.45 17.02L93.96 17.02L93.96 18.19L90.45 18.19L90.45 20.82L94.55 20.82L94.55 22ZM100.23 22L98.74 22L98.74 13.47L101.74 13.47Q103.22 13.47 104.02 14.13Q104.83 14.79 104.83 16.05L104.83 16.05Q104.83 16.90 104.41 17.48Q104.00 18.06 103.26 18.37L103.26 18.37L105.18 21.92L105.18 22L103.59 22L101.88 18.71L100.23 18.71L100.23 22ZM100.23 14.66L100.23 17.52L101.75 17.52Q102.50 17.52 102.92 17.15Q103.34 16.77 103.34 16.11L103.34 16.11Q103.34 15.43 102.95 15.05Q102.56 14.68 101.79 14.66L101.79 14.66L100.23 14.66ZM111.26 18.86L108.39 13.47L110.04 13.47L112.00 17.51L113.97 13.47L115.61 13.47L112.75 18.86L112.75 22L111.26 22L111.26 18.86ZM131.08 22L125.50 22L125.50 13.47L131.04 13.47L131.04 14.66L126.98 14.66L126.98 17.02L130.48 17.02L130.48 18.19L126.98 18.19L126.98 20.82L131.08 20.82L131.08 22ZM136.75 22L135.27 22L135.27 13.47L136.75 13.47L140.57 19.54L140.57 13.47L142.04 13.47L142.04 22L140.56 22L136.75 15.95L136.75 22ZM149.23 22L146.78 22L146.78 13.47L149.30 13.47Q150.43 13.47 151.31 13.97Q152.18 14.48 152.66 15.40Q153.14 16.33 153.14 17.52L153.14 17.52L153.14 17.95Q153.14 19.16 152.66 20.08Q152.18 21.00 151.28 21.50Q150.39 22 149.23 22L149.23 22ZM148.26 14.66L148.26 20.82L149.23 20.82Q150.39 20.82 151.02 20.09Q151.64 19.36 151.65 17.99L151.65 17.99L151.65 17.52Q151.65 16.13 151.05 15.40Q150.45 14.66 149.30 14.66L149.30 14.66L148.26 14.66ZM164.97 22L163.00 13.47L164.47 13.47L165.79 19.88L167.42 13.47L168.66 13.47L170.28 19.89L171.59 13.47L173.06 13.47L171.09 22L169.67 22L168.05 15.77L166.39 22L164.97 22ZM178.70 22L177.22 22L177.22 13.47L178.70 13.47L178.70 22ZM185.19 14.66L182.55 14.66L182.55 13.47L189.32 13.47L189.32 14.66L186.66 14.66L186.66 22L185.19 22L185.19 14.66ZM194.56 22L193.07 22L193.07 13.47L194.56 13.47L194.56 17.02L198.37 17.02L198.37 13.47L199.85 13.47L199.85 22L198.37 22L198.37 18.21L194.56 18.21L194.56 22Z" fill="#FFFFFF"/><path class="svg__text" d="M228.55 18.95L225.35 13.60L227.86 13.60L229.85 16.94L231.84 13.60L234.14 13.60L230.93 18.99L230.93 22L228.55 22L228.55 18.95ZM237.80 17.80L237.80 17.80Q237.80 16.55 238.40 15.55Q239.01 14.56 240.07 14.00Q241.13 13.43 242.47 13.43L242.47 13.43Q243.80 13.43 244.86 14.00Q245.92 14.56 246.53 15.55Q247.13 16.55 247.13 17.80L247.13 17.80Q247.13 19.05 246.53 20.04Q245.92 21.04 244.86 21.60Q243.80 22.17 242.47 22.17L242.47 22.17Q241.13 22.17 240.07 21.60Q239.01 21.04 238.40 20.04Q237.80 19.05 237.80 17.80ZM240.20 17.80L240.20 17.80Q240.20 18.51 240.50 19.05Q240.80 19.60 241.32 19.90Q241.83 20.20 242.47 20.20L242.47 20.20Q243.10 20.20 243.62 19.90Q244.13 19.60 244.43 19.05Q244.73 18.51 244.73 17.80L244.73 17.80Q244.73 17.09 244.43 16.54Q244.13 16 243.62 15.70Q243.10 15.40 242.47 15.40L242.47 15.40Q241.83 15.40 241.31 15.70Q240.80 16 240.50 16.54Q240.20 17.09 240.20 17.80ZM251.79 18.26L251.79 18.26L251.79 13.60L254.17 13.60L254.17 18.19Q254.17 20.20 255.77 20.20L255.77 20.20Q257.35 20.20 257.35 18.19L257.35 18.19L257.35 13.60L259.69 13.60L259.69 18.26Q259.69 20.13 258.65 21.15Q257.61 22.17 255.74 22.17L255.74 22.17Q253.87 22.17 252.83 21.15Q251.79 20.13 251.79 18.26Z" fill="#FFFFFF" x="225.24"/></svg>